# xmcd
#
# Track frame offsets:
#	150
#	17597
#	28915
#	42230
#	59048
#	73622
#	85757
#	101533
#	116101
#	130834
#	146373
#
# Disc length: 2114 seconds
#
# Revision: 0
# Processed by: cddbd v1.5.1PL0 Copyright (c) Steve Scherf et al.
# Submitted via: dBpowerAMP V4.0
#
DISCID=9808400b
DTITLE=Don Williams - My Heart To You
DYEAR=2004
DGENRE=Country
TTITLE0=Running In The Fast Lane
TTITLE1=Fly Away
TTITLE2=I'll Be Faithful To You
TTITLE3=Oh Misery
TTITLE4=My Heart To You
TTITLE5=One Like Me
TTITLE6=The Rose
TTITLE7=When I'm With You
TTITLE8=Get Away
TTITLE9=Wonderful Tonight
TTITLE10=Years From Now
EXTD=
EXTT0=
EXTT1=
EXTT2=
EXTT3=
EXTT4=
EXTT5=
EXTT6=
EXTT7=
EXTT8=
EXTT9=
EXTT10=
PLAYORDER=
